<?xml version="1.0" encoding="UTF-8" standalone="no"?>
<!DOCTYPE svg PUBLIC "-//W3C//DTD SVG 1.1//EN" "http://www.w3.org/Graphics/SVG/1.1/DTD/svg11.dtd">
<svg width="100%" height="100%" viewBox="0 0 16 16" version="1.1" xmlns="http://www.w3.org/2000/svg" xmlns:xlink="http://www.w3.org/1999/xlink" xml:space="preserve" xmlns:serif="http://www.serif.com/" style="fill-rule:evenodd;clip-rule:evenodd;stroke-linejoin:round;stroke-miterlimit:2;">
    <path d="M3,1C1.903,1 1,1.903 1,3L1,9L2,9L2,3C2,2.451 2.451,2 3,2L9,2L9,1L3,1ZM14,7L14,13C14,13.549 13.549,14 13,14L7,14L7,15L13,15C14.097,15 15,14.097 15,13L15,7L14,7Z" style="fill:rgb(224,224,224);fill-rule:nonzero;"/>
    <g transform="matrix(0.666667,0,0,0.666667,2,2)">
        <rect x="3" y="3" width="3" height="3" style="fill:rgb(235,235,235);"/>
    </g>
    <g transform="matrix(0.666667,0,0,0.666667,5,2)">
        <rect x="3" y="3" width="3" height="3" style="fill:rgb(235,235,235);"/>
    </g>
    <g transform="matrix(0.666667,0,0,0.666667,8,2)">
        <rect x="3" y="3" width="3" height="3" style="fill:rgb(235,235,235);"/>
    </g>
    <g transform="matrix(0.666667,0,0,0.666667,2,5)">
        <rect x="3" y="3" width="3" height="3" style="fill:rgb(235,235,235);"/>
    </g>
    <g transform="matrix(0.666667,0,0,0.666667,5,5)">
        <rect x="3" y="3" width="3" height="3" style="fill:rgb(235,235,235);"/>
    </g>
    <g transform="matrix(0.666667,0,0,0.666667,8,5)">
        <rect x="3" y="3" width="3" height="3" style="fill:rgb(235,235,235);"/>
    </g>
    <g transform="matrix(0.666667,0,0,0.666667,2,8)">
        <rect x="3" y="3" width="3" height="3" style="fill:rgb(235,235,235);"/>
    </g>
    <g transform="matrix(0.666667,0,0,0.666667,5,8)">
        <rect x="3" y="3" width="3" height="3" style="fill:rgb(235,235,235);"/>
    </g>
    <g transform="matrix(0.666667,0,0,0.666667,8,8)">
        <rect x="3" y="3" width="3" height="3" style="fill:rgb(235,235,235);"/>
    </g>
</svg>
